<?xml version="1.0" encoding="UTF-8" standalone="no"?>
<!DOCTYPE svg PUBLIC "-//W3C//DTD SVG 1.1//EN"
 "http://www.w3.org/Graphics/SVG/1.1/DTD/svg11.dtd">
<!-- Generated by graphviz version 2.26.3 (20100126.1600)
 -->
<!-- Title: dependencies Pages: 1 -->
<svg width="576pt" height="718pt"
 viewBox="0.00 0.00 576.00 718.26" xmlns="http://www.w3.org/2000/svg" xmlns:xlink="http://www.w3.org/1999/xlink">
<g id="graph1" class="graph" transform="scale(0.870091 0.870091) rotate(0) translate(4 821.5)">
<title>dependencies</title>
<polygon fill="white" stroke="white" points="-4,5 -4,-821.5 659,-821.5 659,5 -4,5"/>
<!-- devanagari.py -->
<g id="node1" class="node"><title>devanagari.py</title>
<ellipse fill="lightgrey" stroke="black" cx="612" cy="-763.88" rx="38.7629" ry="18"/>
<text text-anchor="middle" x="612" y="-762.58" font-family="Times Roman,serif" font-size="7.00">devanagari.py</text>
</g>
<!-- generate_stats_table.py -->
<g id="node2" class="node"><title>generate_stats_table.py</title>
<ellipse fill="lightgrey" stroke="black" cx="196" cy="-626.88" rx="60.0444" ry="18"/>
<text text-anchor="middle" x="196" y="-625.58" font-family="Times Roman,serif" font-size="7.00">generate_stats_table.py</text>
</g>
<!-- print_utils.py -->
<g id="node4" class="node"><title>print_utils.py</title>
<ellipse fill="lightgrey" stroke="black" cx="337" cy="-650.88" rx="36.9504" ry="18"/>
<text text-anchor="middle" x="337" y="-649.58" font-family="Times Roman,serif" font-size="7.00">print_utils.py</text>
</g>
<!-- generate_stats_table.py&#45;&gt;print_utils.py -->
<g id="edge2" class="edge"><title>generate_stats_table.py&#45;&gt;print_utils.py</title>
<path fill="none" stroke="black" d="M248.503,-635.816C262.729,-638.238 278.002,-640.837 291.788,-643.184"/>
<polygon fill="black" stroke="black" points="291.553,-646.694 301.999,-644.922 292.728,-639.793 291.553,-646.694"/>
</g>
<!-- handle_input.py -->
<g id="node5" class="node"><title>handle_input.py</title>
<ellipse fill="lightgrey" stroke="black" cx="337" cy="-488.88" rx="42.2213" ry="18"/>
<text text-anchor="middle" x="337" y="-487.58" font-family="Times Roman,serif" font-size="7.00">handle_input.py</text>
</g>
<!-- slp1.py -->
<g id="node7" class="node"><title>slp1.py</title>
<ellipse fill="lightgrey" stroke="black" cx="612" cy="-441.88" rx="27" ry="18"/>
<text text-anchor="middle" x="612" y="-440.58" font-family="Times Roman,serif" font-size="7.00">slp1.py</text>
</g>
<!-- handle_input.py&#45;&gt;slp1.py -->
<g id="edge4" class="edge"><title>handle_input.py&#45;&gt;slp1.py</title>
<path fill="none" stroke="black" d="M376.694,-482.096C429.99,-472.987 523.934,-456.931 575.53,-448.113"/>
<polygon fill="black" stroke="black" points="576.297,-451.532 585.564,-446.398 575.117,-444.632 576.297,-451.532"/>
</g>
<!-- transliteration_data.py -->
<g id="node9" class="node"><title>transliteration_data.py</title>
<ellipse fill="lightgrey" stroke="black" cx="476" cy="-602.88" rx="57.233" ry="18"/>
<text text-anchor="middle" x="476" y="-601.58" font-family="Times Roman,serif" font-size="7.00">transliteration_data.py</text>
</g>
<!-- handle_input.py&#45;&gt;transliteration_data.py -->
<g id="edge6" class="edge"><title>handle_input.py&#45;&gt;transliteration_data.py</title>
<path fill="none" stroke="black" d="M356.62,-504.971C380.222,-524.327 420.042,-556.986 447.146,-579.215"/>
<polygon fill="black" stroke="black" points="445.166,-582.118 455.117,-585.753 449.605,-576.705 445.166,-582.118"/>
</g>
<!-- transliteration_data.py&#45;&gt;devanagari.py -->
<g id="edge30" class="edge"><title>transliteration_data.py&#45;&gt;devanagari.py</title>
<path fill="none" stroke="black" d="M490.813,-620.416C515.057,-649.116 563.281,-706.205 591.029,-739.054"/>
<polygon fill="black" stroke="black" points="588.489,-741.47 597.616,-746.851 593.836,-736.953 588.489,-741.47"/>
</g>
<!-- transliteration_data.py&#45;&gt;slp1.py -->
<g id="edge32" class="edge"><title>transliteration_data.py&#45;&gt;slp1.py</title>
<path fill="none" stroke="black" d="M490.813,-585.343C515.311,-556.342 564.294,-498.355 591.894,-465.681"/>
<polygon fill="black" stroke="black" points="594.643,-467.851 598.422,-457.953 589.296,-463.334 594.643,-467.851"/>
</g>
<!-- transliterate.py -->
<g id="node27" class="node"><title>transliterate.py</title>
<ellipse fill="lightgrey" stroke="black" cx="612" cy="-602.88" rx="42.1466" ry="18"/>
<text text-anchor="middle" x="612" y="-601.58" font-family="Times Roman,serif" font-size="7.00">transliterate.py</text>
</g>
<!-- transliteration_data.py&#45;&gt;transliterate.py -->
<g id="edge34" class="edge"><title>transliteration_data.py&#45;&gt;transliterate.py</title>
<path fill="none" stroke="black" d="M533.676,-602.88C542.323,-602.88 551.198,-602.88 559.724,-602.88"/>
<polygon fill="black" stroke="black" points="559.912,-606.38 569.912,-602.88 559.912,-599.38 559.912,-606.38"/>
</g>
<!-- match_result.py -->
<g id="node10" class="node"><title>match_result.py</title>
<ellipse fill="lightgrey" stroke="black" cx="476" cy="-53.8796" rx="42.8036" ry="18"/>
<text text-anchor="middle" x="476" y="-52.5796" font-family="Times Roman,serif" font-size="7.00">match_result.py</text>
</g>
<!-- metrical_data.py -->
<g id="node11" class="node"><title>metrical_data.py</title>
<ellipse fill="lightgrey" stroke="black" cx="337" cy="-214.88" rx="45.0333" ry="18"/>
<text text-anchor="middle" x="337" y="-213.58" font-family="Times Roman,serif" font-size="7.00">metrical_data.py</text>
</g>
<!-- metrical_data.py&#45;&gt;match_result.py -->
<g id="edge8" class="edge"><title>metrical_data.py&#45;&gt;match_result.py</title>
<path fill="none" stroke="black" d="M351.875,-197.65C376.539,-169.083 425.995,-111.799 454.472,-78.8152"/>
<polygon fill="black" stroke="black" points="457.346,-80.8421 461.232,-70.9855 452.047,-76.2676 457.346,-80.8421"/>
</g>
<!-- simple_utils.py -->
<g id="node14" class="node"><title>simple_utils.py</title>
<ellipse fill="lightgrey" stroke="black" cx="476" cy="-214.88" rx="40.9919" ry="18"/>
<text text-anchor="middle" x="476" y="-213.58" font-family="Times Roman,serif" font-size="7.00">simple_utils.py</text>
</g>
<!-- metrical_data.py&#45;&gt;simple_utils.py -->
<g id="edge10" class="edge"><title>metrical_data.py&#45;&gt;simple_utils.py</title>
<path fill="none" stroke="black" d="M382.129,-214.88C395.648,-214.88 410.574,-214.88 424.472,-214.88"/>
<polygon fill="black" stroke="black" points="424.858,-218.38 434.858,-214.88 424.858,-211.38 424.858,-218.38"/>
</g>
<!-- read_gretil.py -->
<g id="node15" class="node"><title>read_gretil.py</title>
<ellipse fill="lightgrey" stroke="black" cx="50" cy="-500.88" rx="38.1801" ry="18"/>
<text text-anchor="middle" x="50" y="-499.58" font-family="Times Roman,serif" font-size="7.00">read_gretil.py</text>
</g>
<!-- read_gretil.py&#45;&gt;print_utils.py -->
<g id="edge14" class="edge"><title>read_gretil.py&#45;&gt;print_utils.py</title>
<path fill="none" stroke="black" d="M53.9039,-518.983C62.2562,-552.674 85.3714,-624.259 136,-653.88 185.082,-682.595 253.11,-673.542 296.084,-663.165"/>
<polygon fill="black" stroke="black" points="297.086,-666.522 305.914,-660.663 295.359,-659.738 297.086,-666.522"/>
</g>
<!-- read_gretil.py&#45;&gt;handle_input.py -->
<g id="edge12" class="edge"><title>read_gretil.py&#45;&gt;handle_input.py</title>
<path fill="none" stroke="black" d="M88.4083,-499.274C138.88,-497.163 227.747,-493.448 284.428,-491.078"/>
<polygon fill="black" stroke="black" points="284.775,-494.566 294.62,-490.652 284.483,-487.572 284.775,-494.566"/>
</g>
<!-- sscan.py -->
<g id="node19" class="node"><title>sscan.py</title>
<ellipse fill="lightgrey" stroke="black" cx="196" cy="-351.88" rx="27.2089" ry="18"/>
<text text-anchor="middle" x="196" y="-350.58" font-family="Times Roman,serif" font-size="7.00">sscan.py</text>
</g>
<!-- read_gretil.py&#45;&gt;sscan.py -->
<g id="edge16" class="edge"><title>read_gretil.py&#45;&gt;sscan.py</title>
<path fill="none" stroke="black" d="M66.1824,-484.365C92.4647,-457.542 144.462,-404.477 174.051,-374.28"/>
<polygon fill="black" stroke="black" points="176.563,-376.717 181.062,-367.125 171.563,-371.818 176.563,-376.717"/>
</g>
<!-- sscan.py&#45;&gt;print_utils.py -->
<g id="edge26" class="edge"><title>sscan.py&#45;&gt;print_utils.py</title>
<path fill="none" stroke="black" d="M204.19,-369.247C227.741,-419.188 295.772,-563.452 324.238,-623.817"/>
<polygon fill="black" stroke="black" points="321.179,-625.536 328.61,-633.088 327.51,-622.55 321.179,-625.536"/>
</g>
<!-- sscan.py&#45;&gt;handle_input.py -->
<g id="edge20" class="edge"><title>sscan.py&#45;&gt;handle_input.py</title>
<path fill="none" stroke="black" d="M211.628,-367.064C236.113,-390.855 283.707,-437.099 312.693,-465.262"/>
<polygon fill="black" stroke="black" points="310.377,-467.892 319.988,-472.35 315.255,-462.871 310.377,-467.892"/>
</g>
<!-- sscan.py&#45;&gt;slp1.py -->
<g id="edge28" class="edge"><title>sscan.py&#45;&gt;slp1.py</title>
<path fill="none" stroke="black" d="M222.338,-357.578C294.361,-373.16 494.648,-416.491 576.479,-434.195"/>
<polygon fill="black" stroke="black" points="575.795,-437.628 586.309,-436.321 577.276,-430.786 575.795,-437.628"/>
</g>
<!-- sscan.py&#45;&gt;match_result.py -->
<g id="edge22" class="edge"><title>sscan.py&#45;&gt;match_result.py</title>
<path fill="none" stroke="black" d="M203.356,-334.318C217.262,-302.542 249.832,-234.483 292,-187.88 336.276,-138.946 401.083,-96.8337 440.795,-73.4654"/>
<polygon fill="black" stroke="black" points="442.709,-76.4015 449.597,-68.3514 439.192,-70.3489 442.709,-76.4015"/>
</g>
<!-- sscan.py&#45;&gt;metrical_data.py -->
<g id="edge24" class="edge"><title>sscan.py&#45;&gt;metrical_data.py</title>
<path fill="none" stroke="black" d="M211.628,-336.695C235.981,-313.032 283.196,-267.157 312.224,-238.953"/>
<polygon fill="black" stroke="black" points="314.807,-241.323 319.54,-231.844 309.929,-236.302 314.807,-241.323"/>
</g>
<!-- request_handler.py -->
<g id="node20" class="node"><title>request_handler.py</title>
<ellipse fill="lightgrey" stroke="black" cx="50" cy="-339.88" rx="49.1506" ry="18"/>
<text text-anchor="middle" x="50" y="-338.58" font-family="Times Roman,serif" font-size="7.00">request_handler.py</text>
</g>
<!-- request_handler.py&#45;&gt;sscan.py -->
<g id="edge18" class="edge"><title>request_handler.py&#45;&gt;sscan.py</title>
<path fill="none" stroke="black" d="M98.6159,-343.875C118.032,-345.471 140.048,-347.281 158.229,-348.775"/>
<polygon fill="black" stroke="black" points="158.189,-352.284 168.442,-349.615 158.762,-345.307 158.189,-352.284"/>
</g>
</g>
</svg>
